<svg width="11" height="11" viewBox="0 0 11 11" fill="none" xmlns="http://www.w3.org/2000/svg">
<path d="M10.2962 0.703125V10.9993H0V0.703125H10.2962ZM0.735442 10.2639H9.56075V1.43857H0.735442V10.2639Z" fill="white"/>
<path d="M5.14797 2.17418C5.14807 1.97117 5.31263 1.8065 5.51565 1.8065L8.82505 1.80675C9.02813 1.80675 9.19273 1.97135 9.19273 2.17443L9.19298 5.48382C9.19298 5.68685 9.02831 5.85141 8.8253 5.85151C8.62221 5.85151 8.45762 5.68691 8.45762 5.48382L8.45736 3.06215L3.56933 7.95019L3.04929 7.43015L7.93733 2.54211L5.51565 2.54186C5.31257 2.54186 5.14797 2.37727 5.14797 2.17418Z" fill="white"/>
</svg>
