<svg width="160" height="160" viewBox="0 0 160 160" fill="none" xmlns="http://www.w3.org/2000/svg">
<circle cx="80" cy="80" r="80" fill="black"/>
<path d="M94.0049 42C95.2799 42.0001 96.3132 43.0336 96.3135 44.3086V51.7168H112.741C116.347 51.7168 119.269 54.6397 119.27 58.2451V111.472C119.27 115.077 116.347 118 112.741 118H47.5283C43.9229 118 41 115.077 41 111.472V58.2451C41 54.6397 43.9229 51.7168 47.5283 51.7168H63.9561V44.3086C63.9563 43.0336 64.9897 42.0001 66.2646 42C67.5397 42 68.574 43.0336 68.5742 44.3086V51.7168H91.6953V44.3086C91.6955 43.0336 92.7298 42 94.0049 42ZM45.6182 111.472C45.6182 112.527 46.4734 113.382 47.5283 113.382H112.741C113.796 113.382 114.651 112.527 114.651 111.472V77.2207H45.6182V111.472ZM47.5283 56.335C46.4734 56.335 45.6182 57.1902 45.6182 58.2451V72.6025H114.651V58.2451C114.651 57.1902 113.796 56.335 112.741 56.335H96.3135V63.7422C96.3135 65.0173 95.28 66.0516 94.0049 66.0518C92.7296 66.0518 91.6953 65.0174 91.6953 63.7422V56.335H68.5742V63.7422C68.5742 65.0174 67.5399 66.0518 66.2646 66.0518C64.9895 66.0516 63.9561 65.0173 63.9561 63.7422V56.335H47.5283Z" fill="white"/>
</svg>
